# Blender v2.76 (sub 0) OBJ File: ''
# www.blender.org
mtllib untitled.mtl
o Cylinder
v 3.000000 -0.360000 -0.400000
v 3.000000 0.360000 -0.400000
v 3.153073 -0.360000 -0.369552
v 3.153073 0.360000 -0.369552
v 3.282843 -0.360000 -0.282843
v 3.282843 0.360000 -0.282843
v 3.369552 -0.360000 -0.153073
v 3.369552 0.360000 -0.153073
v 3.400000 -0.360000 0.000000
v 3.400000 0.360000 0.000000
v 3.369552 -0.360000 0.153073
v 3.369552 0.360000 0.153073
v 3.282843 -0.360000 0.282843
v 3.282843 0.360000 0.282843
v 3.153073 -0.360000 0.369552
v 3.153073 0.360000 0.369552
v 3.000000 -0.360000 0.400000
v 3.000000 0.360000 0.400000
v 2.846927 -0.360000 0.369552
v 2.846927 0.360000 0.369552
v 2.717157 -0.360000 0.282843
v 2.717157 0.360000 0.282843
v 2.630448 -0.360000 0.153073
v 2.630448 0.360000 0.153073
v 2.600000 -0.360000 -0.000000
v 2.600000 0.360000 -0.000000
v 2.630448 -0.360000 -0.153073
v 2.630448 0.360000 -0.153073
v 2.717157 -0.360000 -0.282843
v 2.717157 0.360000 -0.282843
v 2.846927 -0.360000 -0.369552
v 2.846927 0.360000 -0.369552
v 3.153073 0.360000 -0.369552
v 3.000000 0.360000 -0.400000
v 3.282843 0.360000 -0.282843
v 3.369552 0.360000 -0.153073
v 3.400000 0.360000 0.000000
v 3.369552 0.360000 0.153073
v 3.282843 0.360000 0.282843
v 3.153073 0.360000 0.369552
v 3.000000 0.360000 0.400000
v 2.846927 0.360000 0.369552
v 2.717157 0.360000 0.282843
v 2.630448 0.360000 0.153073
v 2.600000 0.360000 -0.000000
v 2.630448 0.360000 -0.153073
v 2.717157 0.360000 -0.282843
v 2.846927 0.360000 -0.369552
v 3.153073 0.360000 -0.369552
v 3.000000 0.360000 -0.400000
v 3.282843 0.360000 -0.282843
v 3.369552 0.360000 -0.153073
v 3.400000 0.360000 0.000000
v 3.369552 0.360000 0.153073
v 3.282843 0.360000 0.282843
v 3.153073 0.360000 0.369552
v 3.000000 0.360000 0.400000
v 2.846927 0.360000 0.369552
v 2.717157 0.360000 0.282843
v 2.630448 0.360000 0.153073
v 2.600000 0.360000 -0.000000
v 2.630448 0.360000 -0.153073
v 2.717157 0.360000 -0.282843
v 2.846927 0.360000 -0.369552
v 3.153073 0.360000 -0.369552
v 3.000000 0.360000 -0.400000
v 3.282843 0.360000 -0.282843
v 3.369552 0.360000 -0.153073
v 3.400000 0.360000 0.000000
v 3.369552 0.360000 0.153073
v 3.282843 0.360000 0.282843
v 3.153073 0.360000 0.369552
v 3.000000 0.360000 0.400000
v 2.846927 0.360000 0.369552
v 2.717157 0.360000 0.282843
v 2.630448 0.360000 0.153073
v 2.600000 0.360000 -0.000000
v 2.630448 0.360000 -0.153073
v 2.717157 0.360000 -0.282843
v 2.846927 0.360000 -0.369552
v 3.000000 0.360000 0.000000
v 3.000000 0.360000 0.000000
v 3.000000 0.360000 0.000000
v 3.000000 0.360000 0.000000
v 3.000000 0.360000 -0.000000
v 3.000000 0.360000 0.000000
v 3.000000 0.360000 0.000000
v 3.000000 0.360000 0.000000
v 3.000000 0.360000 0.000000
v 3.000000 0.360000 0.000000
v 3.000000 0.360000 0.000000
v 3.000000 0.360000 0.000000
v 3.000000 0.360000 -0.000000
v 3.000000 0.360000 0.000000
v 3.000000 0.360000 0.000000
v 3.000000 0.360000 0.000000
vn 0.195100 0.000000 -0.980800
vn 0.555600 0.000000 -0.831500
vn 0.831500 0.000000 -0.555600
vn 0.980800 0.000000 -0.195100
vn 0.980800 0.000000 0.195100
vn 0.831500 0.000000 0.555600
vn 0.555600 0.000000 0.831500
vn 0.195100 0.000000 0.980800
vn -0.195100 0.000000 0.980800
vn -0.555600 0.000000 0.831500
vn -0.831500 0.000000 0.555600
vn -0.980800 0.000000 0.195100
vn -0.980800 0.000000 -0.195100
vn -0.831500 0.000000 -0.555600
vn 0.000000 0.000000 1.000000
vn -0.195100 0.000000 -0.980800
vn -0.555600 0.000000 -0.831500
vn 0.000000 -1.000000 0.000000
vn 0.000000 1.000000 0.000000
usemtl None
s off
f 1//1 2//1 4//1 3//1
f 3//2 4//2 6//2 5//2
f 5//3 6//3 8//3 7//3
f 7//4 8//4 10//4 9//4
f 9//5 10//5 12//5 11//5
f 11//6 12//6 14//6 13//6
f 13//7 14//7 16//7 15//7
f 15//8 16//8 18//8 17//8
f 17//9 18//9 20//9 19//9
f 19//10 20//10 22//10 21//10
f 21//11 22//11 24//11 23//11
f 23//12 24//12 26//12 25//12
f 25//13 26//13 28//13 27//13
f 27//14 28//14 30//14 29//14
f 14//15 12//15 38//15 39//15
f 31//16 32//16 2//16 1//16
f 29//17 30//17 32//17 31//17
f 1//18 3//18 5//18 7//18 9//18 11//18 13//18 15//18 17//18 19//18 21//18 23//18 25//18 27//18 29//18 31//18
f 47//15 46//15 62//15 63//15
f 24//15 22//15 43//15 44//15
f 2//15 32//15 48//15 34//15
f 10//15 8//15 36//15 37//15
f 20//15 18//15 41//15 42//15
f 30//15 28//15 46//15 47//15
f 6//15 4//15 33//15 35//15
f 16//15 14//15 39//15 40//15
f 26//15 24//15 44//15 45//15
f 12//15 10//15 37//15 38//15
f 22//15 20//15 42//15 43//15
f 32//15 30//15 47//15 48//15
f 8//15 6//15 35//15 36//15
f 18//15 16//15 40//15 41//15
f 4//15 2//15 34//15 33//15
f 28//15 26//15 45//15 46//15
f 53//15 52//15 68//15 69//15
f 40//15 39//15 55//15 56//15
f 48//15 47//15 63//15 64//15
f 41//15 40//15 56//15 57//15
f 33//15 34//15 50//15 49//15
f 34//15 48//15 64//15 50//15
f 42//15 41//15 57//15 58//15
f 35//15 33//15 49//15 51//15
f 43//15 42//15 58//15 59//15
f 36//15 35//15 51//15 52//15
f 44//15 43//15 59//15 60//15
f 37//15 36//15 52//15 53//15
f 45//15 44//15 60//15 61//15
f 38//15 37//15 53//15 54//15
f 46//15 45//15 61//15 62//15
f 39//15 38//15 54//15 55//15
f 74//19 73//19 89//19 90//19
f 61//15 60//15 76//15 77//15
f 54//15 53//15 69//15 70//15
f 62//15 61//15 77//15 78//15
f 55//15 54//15 70//15 71//15
f 63//15 62//15 78//15 79//15
f 56//15 55//15 71//15 72//15
f 64//15 63//15 79//15 80//15
f 57//15 56//15 72//15 73//15
f 49//15 50//15 66//15 65//15
f 50//15 64//15 80//15 66//15
f 58//15 57//15 73//15 74//15
f 51//15 49//15 65//15 67//15
f 59//15 58//15 74//15 75//15
f 52//15 51//15 67//15 68//15
f 60//15 59//15 75//15 76//15
f 81//15 82//15 96//15 95//15 94//15 93//15 92//15 91//15 90//15 89//15 88//15 87//15 86//15 85//15 84//15 83//15
f 67//19 65//19 81//19 83//19
f 75//19 74//19 90//19 91//19
f 68//19 67//19 83//19 84//19
f 76//19 75//19 91//19 92//19
f 69//19 68//19 84//19 85//19
f 77//19 76//19 92//19 93//19
f 70//19 69//19 85//19 86//19
f 78//19 77//19 93//19 94//19
f 71//19 70//19 86//19 87//19
f 79//19 78//19 94//19 95//19
f 72//19 71//19 87//19 88//19
f 80//19 79//19 95//19 96//19
f 73//19 72//19 88//19 89//19
f 65//19 66//19 82//19 81//19
f 66//19 80//19 96//19 82//19
